<svg width="1091" height="231" viewBox="0 0 1091 231" fill="none" xmlns="http://www.w3.org/2000/svg">
<path d="M0.417969 102.68C0.417969 91.931 1.90625 81.7197 4.88281 72.0459C7.94206 62.3721 12.4482 53.277 18.4014 44.7607C27.3311 32.1104 38.6999 22.3952 52.5078 15.6152C66.3984 8.7526 81.6947 5.32129 98.3965 5.32129C108.897 5.32129 120.225 6.85091 132.379 9.91016C135.852 10.737 138.001 11.1504 138.828 11.1504C140.234 11.1504 142.259 9.37272 144.905 5.81738C147.634 2.26204 150.28 0.484375 152.843 0.484375C156.563 0.484375 160.739 6.06543 165.369 17.2275C165.948 18.6331 166.403 19.7493 166.733 20.5762C172.521 34.3014 176.201 43.5205 177.771 48.2334C179.425 52.8636 180.252 56.3363 180.252 58.6514C180.252 60.6357 179.508 62.3721 178.02 63.8604C176.614 65.3486 175.002 66.0928 173.183 66.0928C170.289 66.0928 166.113 62.9922 160.656 56.791C158.093 53.8145 155.985 51.4993 154.331 49.8457C146.724 41.9909 139.324 36.2031 132.131 32.4824C124.938 28.7617 117.455 26.9014 109.683 26.9014C94.1383 26.9014 81.4053 33.2679 71.4834 46.001C61.5615 58.734 56.6006 75.1465 56.6006 95.2383C56.6006 115.743 61.8923 132.156 72.4756 144.476C83.1416 156.713 97.3216 162.831 115.016 162.831C123.367 162.831 131.469 161.425 139.324 158.614C147.262 155.72 154.455 151.628 160.904 146.336C162.145 145.344 163.757 143.855 165.741 141.871C170.206 137.572 173.761 135.422 176.407 135.422C179.053 135.422 181.12 136.29 182.608 138.026C184.097 139.763 184.841 142.202 184.841 145.344C184.841 147.245 184.138 149.643 182.732 152.537C181.41 155.348 179.632 158.118 177.399 160.847C168.883 170.934 158.093 178.665 145.029 184.039C131.965 189.413 117.372 192.101 101.249 192.101C71.07 192.101 46.7201 183.874 28.1992 167.42C9.67839 150.883 0.417969 129.303 0.417969 102.68ZM210.345 53.8145C210.345 50.5898 209.973 48.3988 209.229 47.2412C208.567 46.0837 206.996 45.0088 204.516 44.0166C204.351 43.9339 204.102 43.8099 203.772 43.6445C198.563 41.6602 195.958 39.1383 195.958 36.0791C195.958 34.5081 196.702 32.9372 198.191 31.3662C199.762 29.7126 202.366 27.8109 206.004 25.6611L235.274 7.67773C236.349 6.93359 237.465 6.35482 238.622 5.94141C239.78 5.52799 240.855 5.32129 241.847 5.32129C243.666 5.32129 244.906 5.85872 245.568 6.93359C246.312 8.00846 246.684 9.9515 246.684 12.7627V157.498C246.684 160.64 247.139 163.162 248.048 165.063C248.958 166.965 250.446 168.66 252.513 170.148C253.257 170.727 254.332 171.43 255.738 172.257C259.872 174.737 261.939 177.507 261.939 180.566C261.939 183.13 261.071 185.197 259.334 186.768C257.598 188.256 255.241 189 252.265 189H204.764C201.87 189 199.514 188.256 197.695 186.768C195.958 185.197 195.09 183.13 195.09 180.566C195.09 177.507 197.157 174.737 201.291 172.257C202.78 171.43 203.854 170.727 204.516 170.148C206.666 168.66 208.154 166.965 208.981 165.063C209.89 163.162 210.345 160.64 210.345 157.498V53.8145ZM353.175 136.786C352.349 134.14 350.778 132.239 348.462 131.081C346.23 129.924 343.047 129.345 338.913 129.345C331.223 129.345 325.063 131.288 320.433 135.174C315.803 139.06 313.488 144.228 313.488 150.677C313.488 156.63 315.555 161.467 319.689 165.188C323.906 168.908 329.363 170.769 336.06 170.769C342.757 170.769 348.09 169.446 352.059 166.8C356.028 164.154 358.012 160.64 358.012 156.258C357.93 155.431 357.806 154.563 357.64 153.653C357.558 152.661 357.309 151.38 356.896 149.809L353.175 136.786ZM365.082 176.598C357.061 181.724 349.124 185.569 341.269 188.132C333.414 190.612 325.353 191.853 317.085 191.853C304.269 191.853 293.851 188.587 285.831 182.055C277.893 175.44 273.924 167.007 273.924 156.754C273.924 143.442 279.547 132.941 290.792 125.252C302.119 117.48 317.581 113.594 337.176 113.594C339.574 113.594 341.434 113.635 342.757 113.718C344.08 113.718 345.238 113.718 346.23 113.718C343.75 104.127 340.608 97.5534 336.804 93.998C333.084 90.4427 327.585 88.665 320.309 88.665C314.191 88.665 307.824 90.7321 301.21 94.8662C294.595 99.0003 290.585 101.067 289.179 101.067C287.443 101.067 286.037 100.489 284.962 99.3311C283.97 98.1735 283.474 96.6439 283.474 94.7422C283.474 88.3757 288.518 82.0918 298.605 75.8906C308.775 69.6895 320.35 66.5889 333.332 66.5889C346.23 66.5889 356.483 69.9375 364.089 76.6348C371.696 83.2493 377.939 94.3701 382.817 109.997L395.343 149.437C397.41 156.299 399.684 161.26 402.165 164.319C404.645 167.379 407.622 168.908 411.094 168.908C412.831 168.908 414.484 168.288 416.055 167.048C416.634 166.634 417.006 166.428 417.171 166.428C418.081 166.428 418.866 167.213 419.528 168.784C420.272 170.355 420.644 172.257 420.644 174.489C420.644 179.45 418.288 183.419 413.575 186.396C408.945 189.289 402.661 190.736 394.723 190.736C388.522 190.736 382.982 189.579 378.104 187.264C373.226 184.949 368.885 181.393 365.082 176.598ZM493.897 163.823C501.504 163.823 506.92 161.136 510.144 155.762C513.369 150.305 514.981 140.714 514.981 126.988C514.981 112.767 512.79 102.101 508.408 94.9902C504.026 87.8796 497.411 84.3242 488.564 84.3242C480.379 84.3242 473.681 87.4661 468.473 93.75C463.346 99.9512 460.783 108.013 460.783 117.935C460.783 130.006 464.214 140.672 471.077 149.933C477.94 159.193 485.546 163.823 493.897 163.823ZM551.444 199.418C551.444 202.643 551.858 205.206 552.684 207.107C553.594 209.009 555.082 210.663 557.149 212.068C557.893 212.647 559.01 213.35 560.498 214.177C564.467 216.492 566.451 219.179 566.451 222.238C566.451 224.801 565.624 226.827 563.971 228.315C562.317 229.886 560.043 230.672 557.149 230.672H509.4C506.424 230.672 504.067 229.886 502.331 228.315C500.595 226.827 499.726 224.801 499.726 222.238C499.726 219.179 501.711 216.492 505.68 214.177C507.168 213.35 508.284 212.647 509.028 212.068C511.178 210.58 512.708 208.885 513.617 206.983C514.527 205.082 514.981 202.56 514.981 199.418V175.233C509.442 180.938 503.447 185.155 496.998 187.884C490.631 190.53 483.479 191.853 475.542 191.853C460.576 191.853 448.67 186.768 439.823 176.598C430.976 166.428 426.553 152.785 426.553 135.67C426.553 127.815 427.669 120.332 429.901 113.222C432.216 106.028 435.565 99.3724 439.947 93.2539C446.314 84.5723 453.507 77.999 461.527 73.5342C469.547 69.0693 478.105 66.8369 487.2 66.8369C491.665 66.8369 496.626 67.7464 502.083 69.5654C507.54 71.3018 513.534 73.9476 520.066 77.5029C526.515 73.7822 531.848 70.8883 536.065 68.8213C540.365 66.6715 543.052 65.5967 544.127 65.5967C546.855 65.5967 548.757 66.5889 549.832 68.5732C550.907 70.5576 551.444 74.5677 551.444 80.6035V199.418ZM603.613 67.8291C605.267 67.1676 606.797 66.6715 608.202 66.3408C609.691 66.0101 611.055 65.8447 612.295 65.8447C614.527 65.8447 616.098 66.6715 617.008 68.3252C617.917 69.8962 618.372 72.7074 618.372 76.7588V120.663C618.372 138.274 619.488 149.85 621.721 155.39C623.953 160.847 628.005 163.575 633.875 163.575C639.911 163.575 644.831 161.26 648.634 156.63C652.52 152 654.463 145.923 654.463 138.398V106.648C654.463 103.589 654.132 101.563 653.471 100.571C652.809 99.4964 651.28 98.5042 648.882 97.5947C648.717 97.512 648.51 97.4294 648.262 97.3467C643.218 95.3623 640.696 92.8818 640.696 89.9053C640.696 88.1689 641.565 86.4326 643.301 84.6963C645.12 82.96 647.724 81.3063 651.114 79.7354L678.896 67.333C680.632 66.5062 681.996 65.9274 682.988 65.5967C683.981 65.266 684.89 65.1006 685.717 65.1006C687.371 65.1006 688.528 65.7207 689.19 66.9609C689.934 68.2012 690.306 70.3509 690.306 73.4102V157.746C690.306 160.888 690.719 163.41 691.546 165.312C692.456 167.213 693.985 168.908 696.135 170.396C696.879 170.975 697.954 171.678 699.359 172.505C703.494 174.985 705.561 177.755 705.561 180.814C705.561 183.378 704.693 185.403 702.956 186.892C701.303 188.297 698.946 189 695.887 189H662.649C659.259 189 657.068 188.628 656.075 187.884C655.166 187.057 654.628 185.279 654.463 182.551L653.967 173.001C647.104 179.698 640.696 184.535 634.743 187.512C628.79 190.406 622.506 191.853 615.892 191.853C609.112 191.853 603.241 190.323 598.28 187.264C593.319 184.204 589.681 179.946 587.366 174.489C585.795 170.934 584.679 166.345 584.018 160.723C583.439 155.1 583.15 145.799 583.15 132.817V120.663V112.602C583.15 107.806 582.943 104.416 582.529 102.432C582.116 100.447 581.455 99.0003 580.545 98.0908C580.132 97.6774 578.065 96.6852 574.344 95.1143C570.706 93.5433 568.887 91.3109 568.887 88.417C568.887 86.7633 569.755 85.0684 571.491 83.332C573.31 81.5957 575.915 79.9834 579.305 78.4951L603.613 67.8291ZM755.249 128.353L789.108 116.57C791.092 115.909 792.58 115.082 793.573 114.09C794.565 113.098 795.102 111.899 795.185 110.493C795.185 103.796 792.622 97.5947 787.495 91.8896C782.452 86.1846 776.705 83.332 770.256 83.332C764.634 83.332 760.045 85.5645 756.49 90.0293C752.934 94.4941 751.157 100.323 751.157 107.517C751.157 109.914 751.446 112.726 752.025 115.95C752.686 119.175 753.761 123.309 755.249 128.353ZM759.59 141.251C762.401 150.511 766.742 157.581 772.613 162.459C778.566 167.255 785.842 169.652 794.441 169.652C798.41 169.652 802.378 169.115 806.347 168.04C810.316 166.882 814.036 165.229 817.509 163.079C818.667 162.335 820.362 161.219 822.594 159.73C828.713 155.679 832.764 153.653 834.748 153.653C836.485 153.653 837.89 154.232 838.965 155.39C840.04 156.465 840.578 157.829 840.578 159.482C840.578 161.384 839.833 163.493 838.345 165.808C836.939 168.123 834.914 170.521 832.268 173.001C825.571 179.037 817.716 183.75 808.703 187.14C799.774 190.447 790.596 192.101 781.17 192.101C761.409 192.101 745.162 186.106 732.429 174.117C719.696 162.128 713.329 146.956 713.329 128.601C713.329 119.836 714.942 111.775 718.166 104.416C721.391 96.9746 726.145 90.2773 732.429 84.3242C738.465 78.7018 745.328 74.361 753.017 71.3018C760.789 68.1598 768.727 66.5889 776.829 66.5889C786.917 66.5889 795.846 68.4079 803.619 72.0459C811.473 75.6839 818.377 81.2236 824.33 88.665C827.72 92.8818 830.49 97.4294 832.64 102.308C834.872 107.103 835.989 110.783 835.989 113.346C835.989 114.421 835.575 115.289 834.748 115.95C834.004 116.612 831.979 117.521 828.671 118.679L759.59 141.251ZM862.113 90.6494H849.215C846.403 90.6494 844.295 90.1533 842.889 89.1611C841.484 88.0863 840.781 86.474 840.781 84.3242C840.781 81.9264 842.269 79.0739 845.246 75.7666C845.907 75.0225 846.362 74.5264 846.61 74.2783L880.716 33.9707C881.461 33.1439 882.494 31.9036 883.817 30.25C887.455 25.7025 890.142 23.4287 891.879 23.4287C894.194 23.4287 895.806 24.3382 896.716 26.1572C897.708 27.9762 898.286 31.6143 898.452 37.0713V69.5654H934.047C935.866 69.5654 937.023 69.8548 937.519 70.4336C938.098 71.0124 938.387 72.0872 938.387 73.6582C938.387 78.9499 937.643 83.0013 936.155 85.8125C934.749 88.541 932.682 89.9053 929.954 89.9053H898.452V151.173C898.452 157.87 899.279 162.376 900.932 164.691C902.586 167.007 905.48 168.164 909.614 168.164C912.26 168.164 916.27 166.552 921.644 163.327C927.019 160.103 930.822 158.49 933.054 158.49C935.204 158.49 936.94 159.193 938.263 160.599C939.669 162.004 940.372 163.782 940.372 165.932C940.372 172.381 935.948 178.375 927.101 183.915C918.337 189.372 907.96 192.101 895.971 192.101C886.298 192.101 877.781 189.579 870.423 184.535C863.064 179.409 859.384 173.786 859.384 167.668C859.384 166.676 859.839 163.906 860.749 159.358C861.658 154.811 862.113 150.635 862.113 146.832V90.6494ZM1022.55 136.786C1021.73 134.14 1020.16 132.239 1017.84 131.081C1015.61 129.924 1012.43 129.345 1008.29 129.345C1000.6 129.345 994.443 131.288 989.812 135.174C985.182 139.06 982.867 144.228 982.867 150.677C982.867 156.63 984.934 161.467 989.068 165.188C993.285 168.908 998.742 170.769 1005.44 170.769C1012.14 170.769 1017.47 169.446 1021.44 166.8C1025.41 164.154 1027.39 160.64 1027.39 156.258C1027.31 155.431 1027.18 154.563 1027.02 153.653C1026.94 152.661 1026.69 151.38 1026.28 149.809L1022.55 136.786ZM1034.46 176.598C1026.44 181.724 1018.5 185.569 1010.65 188.132C1002.79 190.612 994.732 191.853 986.464 191.853C973.648 191.853 963.23 188.587 955.21 182.055C947.272 175.44 943.304 167.007 943.304 156.754C943.304 143.442 948.926 132.941 960.171 125.252C971.498 117.48 986.96 113.594 1006.56 113.594C1008.95 113.594 1010.81 113.635 1012.14 113.718C1013.46 113.718 1014.62 113.718 1015.61 113.718C1013.13 104.127 1009.99 97.5534 1006.18 93.998C1002.46 90.4427 996.964 88.665 989.688 88.665C983.57 88.665 977.203 90.7321 970.589 94.8662C963.974 99.0003 959.964 101.067 958.559 101.067C956.822 101.067 955.417 100.489 954.342 99.3311C953.35 98.1735 952.853 96.6439 952.853 94.7422C952.853 88.3757 957.897 82.0918 967.984 75.8906C978.154 69.6895 989.73 66.5889 1002.71 66.5889C1015.61 66.5889 1025.86 69.9375 1033.47 76.6348C1041.08 83.2493 1047.32 94.3701 1052.2 109.997L1064.72 149.437C1066.79 156.299 1069.06 161.26 1071.54 164.319C1074.02 167.379 1077 168.908 1080.47 168.908C1082.21 168.908 1083.86 168.288 1085.43 167.048C1086.01 166.634 1086.39 166.428 1086.55 166.428C1087.46 166.428 1088.25 167.213 1088.91 168.784C1089.65 170.355 1090.02 172.257 1090.02 174.489C1090.02 179.45 1087.67 183.419 1082.95 186.396C1078.32 189.289 1072.04 190.736 1064.1 190.736C1057.9 190.736 1052.36 189.579 1047.48 187.264C1042.61 184.949 1038.26 181.393 1034.46 176.598Z" fill="#111111"/>
</svg>
